<svg width="158" height="50" viewBox="0 0 158 50" fill="none" xmlns="http://www.w3.org/2000/svg">
<path d="M26.0273 1.59375L40.0898 38.7188C40.9336 40.9219 41.6133 42.6094 42.1289 43.7812C42.4102 44.4844 43.1367 45.0703 44.3086 45.5391C45.4805 45.9609 46.3477 46.1719 46.9102 46.1719C47.0977 46.1719 47.1914 46.6172 47.1914 47.5078C47.1914 47.6953 47.1445 47.9297 47.0508 48.2109C42.3633 47.9766 39.7852 47.8594 39.3164 47.8594C39.2695 47.8594 36.5508 47.9766 31.1602 48.2109C30.9727 48.0234 30.8789 47.6484 30.8789 47.0859C30.9258 46.4766 31.043 46.1719 31.2305 46.1719C31.793 46.1719 32.4961 46.0547 33.3398 45.8203C34.1836 45.5859 34.6758 45.2812 34.8164 44.9062C34.9102 44.5312 34.957 44.1562 34.957 43.7812C34.957 43.1719 34.8633 42.4688 34.6758 41.6719C34.5352 40.8281 34.3945 40.1719 34.2539 39.7031L33.9727 38.9297L31.0898 30.9844C30.9492 30.7969 30.8086 30.7031 30.668 30.7031C28.8398 30.5625 27.0586 30.4922 25.3242 30.4922C22.8867 30.4922 19.9102 30.6094 16.3945 30.8438L16.043 31.0547L13.0195 38.7891C12.2227 41.1328 11.8242 42.75 11.8242 43.6406C11.8242 44.2969 12.0117 44.7656 12.3867 45.0469C12.8086 45.375 13.4883 45.6562 14.4258 45.8906C15.3633 46.0781 16.043 46.1719 16.4648 46.1719C16.6055 46.1719 16.6758 46.4531 16.6758 47.0156C16.7227 47.5781 16.6992 47.9766 16.6055 48.2109C11.918 47.9766 9.50391 47.8594 9.36328 47.8594C8.42578 47.8594 7.60547 47.8828 6.90234 47.9297C6.19922 47.9766 5.40234 48.0234 4.51172 48.0703C3.66797 48.1172 2.84766 48.1641 2.05078 48.2109C1.86328 48.0234 1.76953 47.6719 1.76953 47.1562C1.76953 46.5 1.86328 46.1719 2.05078 46.1719C2.61328 46.1719 3.33984 46.0547 4.23047 45.8203C5.12109 45.5859 5.73047 45.2578 6.05859 44.8359C7.04297 43.5703 8.14453 41.3672 9.36328 38.2266L21.5977 6.79688C21.6914 6.5625 21.8086 6.1875 21.9492 5.67188C22.1367 5.15625 22.2773 4.78125 22.3711 4.54688C22.4648 4.26562 22.6055 3.9375 22.793 3.5625C22.9805 3.14062 23.1445 2.83594 23.2852 2.64844C23.4258 2.46094 23.5898 2.25 23.7773 2.01562C24.0117 1.78125 24.2461 1.61719 24.4805 1.52344C24.7617 1.42969 25.0664 1.38281 25.3945 1.38281L26.0273 1.59375ZM17.8711 26.9766C20.3086 27.0703 21.9727 27.1172 22.8633 27.1172C24.9258 27.1172 27.0586 27.0469 29.2617 26.9062L29.4727 26.5547L23.7773 11.0156L17.7305 26.6953C17.7305 26.8828 17.7773 26.9766 17.8711 26.9766ZM58.7227 1.80469C58.957 1.80469 61.418 1.6875 66.1055 1.45312C66.1992 1.64062 66.2227 2.03906 66.1758 2.64844C66.1758 3.21094 66.1055 3.49219 65.9648 3.49219C65.6367 3.49219 65.2383 3.53906 64.7695 3.63281C64.3008 3.67969 63.7852 3.89062 63.2227 4.26562C62.707 4.59375 62.4492 5.01562 62.4492 5.53125C62.4492 6.9375 62.9883 8.67188 64.0664 10.7344L78.6211 39.5625C78.7617 39.7969 78.9492 39.8672 79.1836 39.7734C79.418 39.6328 79.582 39.4453 79.6758 39.2109L85.5117 27.0469L78.1289 11.8594C76.7695 9.09375 75.4102 6.84375 74.0508 5.10938C73.6758 4.64063 73.043 4.26562 72.1523 3.98438C71.2617 3.65625 70.5352 3.49219 69.9727 3.49219C69.7852 3.49219 69.6914 3.14062 69.6914 2.4375C69.6914 1.96875 69.7852 1.64062 69.9727 1.45312C75.3633 1.6875 78.3164 1.80469 78.832 1.80469C79.0195 1.80469 81.457 1.6875 86.1445 1.45312C86.2383 1.64062 86.2617 2.03906 86.2148 2.64844C86.2148 3.21094 86.1445 3.49219 86.0039 3.49219C85.6758 3.49219 85.2773 3.53906 84.8086 3.63281C84.3867 3.67969 83.8945 3.86719 83.332 4.19531C82.8164 4.52344 82.5586 4.96875 82.5586 5.53125C82.5586 6.75 83.0977 8.48438 84.1758 10.7344L88.8164 20.2266L93.7383 9.89062C94.3945 8.4375 94.7227 7.07812 94.7227 5.8125C94.7227 5.01562 94.207 4.42969 93.1758 4.05469C92.1914 3.67969 91.3242 3.49219 90.5742 3.49219C90.3867 3.49219 90.293 3.21094 90.293 2.64844C90.293 2.03906 90.3867 1.64062 90.5742 1.45312C94.3242 1.6875 96.6914 1.80469 97.6758 1.80469C97.8633 1.80469 100.301 1.6875 104.988 1.45312C105.082 1.64062 105.105 2.03906 105.059 2.64844C105.059 3.21094 104.988 3.49219 104.848 3.49219C104.379 3.49219 103.559 3.67969 102.387 4.05469C101.262 4.42969 100.465 4.89844 99.9961 5.46094C99.1523 6.49219 97.793 8.90625 95.918 12.7031L90.5039 23.8125L98.168 39.5625C98.4492 40.0781 98.7305 39.9609 99.0117 39.2109L111.598 10.3125C112.395 8.39062 112.793 6.91406 112.793 5.88281C112.793 5.08594 112.301 4.5 111.316 4.125C110.379 3.70312 109.535 3.49219 108.785 3.49219C108.598 3.49219 108.504 3.21094 108.504 2.64844C108.504 2.03906 108.598 1.64062 108.785 1.45312C112.535 1.6875 114.926 1.80469 115.957 1.80469C117.035 1.80469 117.926 1.78125 118.629 1.73438C119.332 1.6875 120.059 1.64062 120.809 1.59375C121.559 1.54688 122.262 1.5 122.918 1.45312C123.012 1.73438 123.059 2.08594 123.059 2.50781C123.059 3.16406 122.965 3.49219 122.777 3.49219C122.309 3.49219 121.559 3.67969 120.527 4.05469C119.496 4.38281 118.723 4.85156 118.207 5.46094C116.848 7.05469 115.488 9.42188 114.129 12.5625L99.2227 46.3125C98.5195 47.8125 97.6055 48.5625 96.4805 48.5625C96.1992 48.5625 95.9883 48.4453 95.8477 48.2109L87.2695 30.6328L79.6758 46.3125C78.9727 47.8125 78.0586 48.5625 76.9336 48.5625C76.6523 48.5625 76.4414 48.4453 76.3008 48.2109L58.0195 11.8594C56.6602 9.09375 55.3008 6.84375 53.9414 5.10938C53.5664 4.64063 52.9336 4.26562 52.043 3.98438C51.1523 3.65625 50.4258 3.49219 49.8633 3.49219C49.6758 3.49219 49.582 3.1875 49.582 2.57812C49.582 2.01562 49.6758 1.64062 49.8633 1.45312C55.2539 1.6875 58.207 1.80469 58.7227 1.80469ZM128.402 13.5469C128.402 9.9375 129.785 6.98438 132.551 4.6875C135.316 2.34375 138.527 1.17188 142.184 1.17188C143.215 1.17188 144.176 1.24219 145.066 1.38281C146.004 1.47656 146.754 1.59375 147.316 1.73438C147.926 1.875 148.77 2.10938 149.848 2.4375C150.973 2.71875 151.957 2.95313 152.801 3.14062C153.363 5.625 153.645 8.97656 153.645 13.1953C153.645 13.5234 153.41 13.6875 152.941 13.6875C151.816 13.6875 151.207 13.4531 151.113 12.9844C150.879 10.9219 149.871 8.92969 148.09 7.00781C146.355 5.03906 144.223 4.05469 141.691 4.05469C138.879 4.05469 136.887 4.75781 135.715 6.16406C134.59 7.57031 134.027 9.30469 134.027 11.3672C134.027 12.2578 134.191 13.125 134.52 13.9688C134.848 14.7656 135.176 15.4453 135.504 16.0078C135.832 16.5234 136.418 17.1328 137.262 17.8359C138.152 18.5391 138.785 19.0312 139.16 19.3125C139.582 19.5938 140.379 20.1094 141.551 20.8594C142.77 21.6094 143.543 22.0781 143.871 22.2656C144.105 22.4062 144.926 22.9219 146.332 23.8125C147.738 24.6562 148.699 25.2656 149.215 25.6406C149.73 25.9688 150.527 26.6016 151.605 27.5391C152.73 28.4297 153.527 29.2266 153.996 29.9297C154.512 30.6328 154.98 31.5234 155.402 32.6016C155.871 33.6328 156.105 34.7109 156.105 35.8359C156.105 39.5859 154.629 42.6797 151.676 45.1172C148.77 47.5078 145.348 48.7031 141.41 48.7031C140.285 48.7031 139.09 48.6094 137.824 48.4219C136.559 48.2812 135.504 48.1406 134.66 48C133.816 47.8125 132.738 47.5781 131.426 47.2969C130.16 46.9688 129.27 46.7578 128.754 46.6641C127.582 40.8984 126.996 37.1719 126.996 35.4844C126.996 35.2031 127.371 35.0625 128.121 35.0625C128.965 35.0625 129.551 35.2734 129.879 35.6953C131.473 42.4453 135.363 45.8203 141.551 45.8203C143.895 45.8203 145.887 45.1172 147.527 43.7109C149.168 42.3047 149.988 40.3125 149.988 37.7344C149.988 36.7969 149.848 35.9297 149.566 35.1328C149.285 34.3359 148.98 33.6797 148.652 33.1641C148.371 32.6484 147.832 32.1094 147.035 31.5469C146.285 30.9375 145.699 30.4922 145.277 30.2109C144.855 29.9297 144.082 29.4844 142.957 28.875C141.832 28.2656 141.059 27.8438 140.637 27.6094C139.277 26.8125 138.316 26.25 137.754 25.9219C137.238 25.5938 136.348 25.0312 135.082 24.2344C133.863 23.3906 132.973 22.6641 132.41 22.0547C131.848 21.3984 131.191 20.625 130.441 19.7344C129.691 18.7969 129.152 17.8125 128.824 16.7812C128.543 15.75 128.402 14.6719 128.402 13.5469Z" fill="#F9F0F0"/>
<path d="M26.0273 1.59375L26.9625 1.23952L26.7942 0.795287L26.3436 0.645067L26.0273 1.59375ZM40.0898 38.7188L39.1547 39.073L39.156 39.0764L40.0898 38.7188ZM42.1289 43.7812L43.0574 43.4099L43.0511 43.3941L43.0442 43.3785L42.1289 43.7812ZM44.3086 45.5391L43.9372 46.4675L43.9534 46.474L43.9699 46.4799L44.3086 45.5391ZM47.0508 48.2109L47.0008 49.2097L47.7593 49.2476L47.9995 48.5272L47.0508 48.2109ZM31.1602 48.2109L30.453 48.918L30.7641 49.2291L31.2036 49.21L31.1602 48.2109ZM30.8789 47.0859L29.8819 47.0092L29.8789 47.0475V47.0859H30.8789ZM34.8164 44.9062L35.7527 45.2574L35.7727 45.204L35.7865 45.1488L34.8164 44.9062ZM34.6758 41.6719L33.6894 41.8363L33.6948 41.8688L33.7024 41.9009L34.6758 41.6719ZM34.2539 39.7031L35.2117 39.4158L35.2035 39.3883L35.1937 39.3614L34.2539 39.7031ZM33.9727 38.9297L33.0326 39.2708L33.0329 39.2714L33.9727 38.9297ZM31.0898 30.9844L32.0299 30.6433L31.9791 30.5034L31.8898 30.3844L31.0898 30.9844ZM30.668 30.7031L30.5913 31.7002L30.6296 31.7031H30.668V30.7031ZM16.3945 30.8438L16.328 29.846L16.0871 29.862L15.88 29.9863L16.3945 30.8438ZM16.043 31.0547L15.5285 30.1972L15.2358 30.3728L15.1116 30.6906L16.043 31.0547ZM13.0195 38.7891L12.0882 38.425L12.08 38.4459L12.0728 38.4672L13.0195 38.7891ZM12.3867 45.0469L13.0007 44.2575L12.9937 44.2521L12.9867 44.2469L12.3867 45.0469ZM14.4258 45.8906L14.1832 46.8608L14.2063 46.8665L14.2297 46.8712L14.4258 45.8906ZM16.6758 47.0156H15.6758V47.0572L15.6792 47.0987L16.6758 47.0156ZM16.6055 48.2109L16.5555 49.2097L17.2687 49.2454L17.5339 48.5823L16.6055 48.2109ZM4.51172 48.0703L4.45916 47.0717L4.45625 47.0719L4.51172 48.0703ZM2.05078 48.2109L1.34367 48.918L1.66121 49.2356L2.1095 49.2092L2.05078 48.2109ZM9.36328 38.2266L8.43139 37.8638L8.43102 37.8648L9.36328 38.2266ZM21.5977 6.79688L20.6691 6.42547L20.6658 6.43413L21.5977 6.79688ZM21.9492 5.67188L21.0094 5.33013L20.9953 5.36893L20.9845 5.40876L21.9492 5.67188ZM22.3711 4.54688L23.2996 4.91827L23.3105 4.89098L23.3198 4.8631L22.3711 4.54688ZM22.793 3.5625L23.6874 4.00971L23.6976 3.9894L23.7068 3.96864L22.793 3.5625ZM23.7773 2.01562L23.0702 1.30852L23.0311 1.34768L22.9965 1.39093L23.7773 2.01562ZM24.4805 1.52344L24.1642 0.574754L24.1364 0.584047L24.1091 0.594961L24.4805 1.52344ZM25.3945 1.38281L25.7108 0.434129L25.5568 0.382812H25.3945V1.38281ZM17.8711 26.9766L17.9095 25.9773L17.8903 25.9766H17.8711V26.9766ZM29.2617 26.9062L29.3254 27.9042L29.8492 27.8708L30.1192 27.4207L29.2617 26.9062ZM29.4727 26.5547L30.3301 27.0692L30.5761 26.6593L30.4116 26.2106L29.4727 26.5547ZM23.7773 11.0156L24.7163 10.6715L23.8012 8.17471L22.8443 10.6558L23.7773 11.0156ZM17.7305 26.6953L16.7974 26.3355L16.7305 26.5092V26.6953H17.7305ZM25.0922 1.94798L39.1547 39.073L41.025 38.3645L26.9625 1.23952L25.0922 1.94798ZM39.156 39.0764C40.0016 41.2844 40.6881 42.9897 41.2136 44.184L43.0442 43.3785C42.5384 42.229 41.8656 40.5594 41.0237 38.3611L39.156 39.0764ZM41.2004 44.1526C41.6336 45.2355 42.6726 45.9617 43.9372 46.4675L44.68 44.6106C43.6008 44.1789 43.1868 43.7333 43.0574 43.4099L41.2004 44.1526ZM43.9699 46.4799C45.1508 46.9051 46.1599 47.1719 46.9102 47.1719V45.1719C46.5354 45.1719 45.8101 45.0168 44.6473 44.5982L43.9699 46.4799ZM46.9102 47.1719C46.7216 47.1719 46.5497 47.1119 46.4146 47.0202C46.2904 46.936 46.2207 46.8416 46.1877 46.7894C46.1293 46.6969 46.1284 46.6449 46.1425 46.7119C46.1674 46.8297 46.1914 47.0793 46.1914 47.5078H48.1914C48.1914 47.0457 48.1686 46.6273 48.0996 46.2998C48.0669 46.1442 48.0074 45.9252 47.8787 45.7214C47.7417 45.5044 47.4289 45.1719 46.9102 45.1719V47.1719ZM46.1914 47.5078C46.1914 47.5441 46.1792 47.6634 46.1021 47.8947L47.9995 48.5272C48.1099 48.196 48.1914 47.8466 48.1914 47.5078H46.1914ZM47.1007 47.2122C42.435 46.9789 39.8179 46.8594 39.3164 46.8594V48.8594C39.7524 48.8594 42.2916 48.9742 47.0008 49.2097L47.1007 47.2122ZM39.3164 46.8594C39.2406 46.8594 36.4794 46.9787 31.1167 47.2119L31.2036 49.21C33.8989 49.0928 35.9261 49.0049 37.2853 48.9463C38.6714 48.8866 39.3217 48.8594 39.3164 48.8594V46.8594ZM31.8673 47.5038C31.9474 47.5839 31.9412 47.6338 31.9194 47.5465C31.8991 47.4653 31.8789 47.3189 31.8789 47.0859H29.8789C29.8789 47.4155 29.9056 47.7378 29.9791 48.0316C30.051 48.3193 30.1854 48.6504 30.453 48.918L31.8673 47.5038ZM31.876 47.1626C31.8859 47.034 31.8985 46.9354 31.9115 46.8627C31.9251 46.7869 31.936 46.7576 31.9353 46.7594C31.9344 46.7616 31.9273 46.78 31.9106 46.8084C31.894 46.8364 31.8626 46.8837 31.8101 46.9361C31.7565 46.9898 31.6783 47.0513 31.5725 47.0987C31.4642 47.1472 31.347 47.1719 31.2305 47.1719V45.1719C30.4672 45.1719 30.1555 45.8154 30.0686 46.0414C29.957 46.3316 29.9074 46.6765 29.8819 47.0092L31.876 47.1626ZM31.2305 47.1719C31.919 47.1719 32.7192 47.0306 33.6075 46.7838L33.0722 44.8568C32.2729 45.0788 31.6669 45.1719 31.2305 45.1719V47.1719ZM33.6075 46.7838C34.0789 46.6529 34.5117 46.4869 34.8682 46.2663C35.2213 46.0477 35.5768 45.7264 35.7527 45.2574L33.8801 44.5551C33.9153 44.4611 33.9545 44.4797 33.8154 44.5658C33.6797 44.6498 33.4445 44.7534 33.0722 44.8568L33.6075 46.7838ZM35.7865 45.1488C35.8995 44.6969 35.957 44.2405 35.957 43.7812H33.957C33.957 44.072 33.9208 44.3656 33.8463 44.6637L35.7865 45.1488ZM35.957 43.7812C35.957 43.0736 35.8487 42.2909 35.6492 41.4428L33.7024 41.9009C33.8778 42.6466 33.957 43.2701 33.957 43.7812H35.957ZM35.6622 41.5075C35.5189 40.6479 35.3702 39.9439 35.2117 39.4158L33.2961 39.9905C33.4189 40.3999 33.5514 41.0083 33.6894 41.8363L35.6622 41.5075ZM35.1937 39.3614L34.9124 38.5879L33.0329 39.2714L33.3141 40.0449L35.1937 39.3614ZM34.9127 38.5886L32.0299 30.6433L30.1498 31.3255L33.0326 39.2708L34.9127 38.5886ZM31.8898 30.3844C31.6851 30.1114 31.2852 29.7031 30.668 29.7031V31.7031C30.504 31.7031 30.3845 31.6457 30.3242 31.6055C30.2715 31.5703 30.2632 31.5489 30.2898 31.5844L31.8898 30.3844ZM30.7447 29.7061C28.8925 29.5636 27.0856 29.4922 25.3242 29.4922V31.4922C27.0316 31.4922 28.7872 31.5614 30.5913 31.7002L30.7447 29.7061ZM25.3242 29.4922C22.8572 29.4922 19.857 29.6107 16.328 29.846L16.4611 31.8415C19.9633 31.608 22.9163 31.4922 25.3242 31.4922V29.4922ZM15.88 29.9863L15.5285 30.1972L16.5575 31.9122L16.909 31.7012L15.88 29.9863ZM15.1116 30.6906L12.0882 38.425L13.9509 39.1531L16.9743 31.4188L15.1116 30.6906ZM12.0728 38.4672C11.2823 40.7919 10.8242 42.5603 10.8242 43.6406H12.8242C12.8242 42.9397 13.163 41.4737 13.9663 39.111L12.0728 38.4672ZM10.8242 43.6406C10.8242 44.4775 11.0691 45.3087 11.7867 45.8469L12.9867 44.2469C12.9543 44.2226 12.8242 44.1162 12.8242 43.6406H10.8242ZM11.7728 45.8362C12.3604 46.2932 13.2024 46.6156 14.1832 46.8608L14.6683 44.9205C13.7742 44.6969 13.2568 44.4568 13.0007 44.2575L11.7728 45.8362ZM14.2297 46.8712C15.1716 47.0596 15.9357 47.1719 16.4648 47.1719V45.1719C16.1503 45.1719 15.555 45.0967 14.6219 44.91L14.2297 46.8712ZM16.4648 47.1719C16.307 47.1719 16.1526 47.1301 16.0181 47.0533C15.8902 46.9802 15.8068 46.8908 15.7571 46.8246C15.7082 46.7594 15.6823 46.7039 15.6703 46.6751C15.6578 46.6451 15.6532 46.6265 15.6529 46.6253C15.6524 46.6234 15.6543 46.6308 15.6572 46.6498C15.66 46.6685 15.6631 46.6947 15.6661 46.7295C15.6719 46.8001 15.6758 46.8943 15.6758 47.0156H17.6758C17.6758 46.7139 17.6589 46.4033 17.5932 46.1403C17.5616 46.0139 17.4989 45.8136 17.3571 45.6246C17.1943 45.4075 16.8929 45.1719 16.4648 45.1719V47.1719ZM15.6792 47.0987C15.7002 47.3504 15.7032 47.5405 15.6951 47.6776C15.6865 47.8243 15.6677 47.8628 15.677 47.8395L17.5339 48.5823C17.7223 48.1114 17.7199 47.5038 17.6723 46.9326L15.6792 47.0987ZM16.6554 47.2122C11.9974 46.9793 9.53716 46.8594 9.36328 46.8594V48.8594C9.35483 48.8594 9.38185 48.8599 9.4813 48.864C9.56766 48.8676 9.69005 48.873 9.8492 48.8803C10.1672 48.8949 10.6276 48.9168 11.2308 48.9461C12.4371 49.0046 14.2119 49.0925 16.5555 49.2097L16.6554 47.2122ZM9.36328 46.8594C8.41033 46.8594 7.56693 46.8832 6.83582 46.9319L6.96886 48.9275C7.64401 48.8825 8.44123 48.8594 9.36328 48.8594V46.8594ZM6.83582 46.9319C6.13838 46.9784 5.34629 47.025 4.45916 47.0717L4.56428 49.0689C5.4584 49.0219 6.26006 48.9747 6.96886 48.9275L6.83582 46.9319ZM4.45625 47.0719C3.61148 47.1188 2.79008 47.1657 1.99206 47.2127L2.1095 49.2092C2.90523 49.1624 3.72446 49.1156 4.56719 49.0688L4.45625 47.0719ZM2.75789 47.5038C2.82643 47.5724 2.82377 47.6153 2.80608 47.549C2.78878 47.4841 2.76953 47.3601 2.76953 47.1562H0.769531C0.769531 47.7167 0.85569 48.4301 1.34367 48.918L2.75789 47.5038ZM2.76953 47.1562C2.76953 47.0143 2.77467 46.9037 2.7826 46.8204C2.78652 46.7792 2.79082 46.748 2.7947 46.7254C2.79865 46.7023 2.80146 46.6924 2.80137 46.6927C2.80123 46.6932 2.79998 46.6975 2.79719 46.7051C2.79442 46.7126 2.78965 46.7247 2.78226 46.7402C2.76838 46.7694 2.73948 46.823 2.68699 46.8842C2.63304 46.9471 2.55004 47.0227 2.43208 47.0817C2.31057 47.1424 2.17902 47.1719 2.05078 47.1719V45.1719C1.66589 45.1719 1.36142 45.3575 1.16848 45.5826C1.00095 45.7781 0.920873 45.9943 0.87832 46.1432C0.792155 46.4448 0.769531 46.8041 0.769531 47.1562H2.76953ZM2.05078 47.1719C2.73611 47.1719 3.5568 47.0316 4.48496 46.7874L3.97598 44.8532C3.12288 45.0777 2.49045 45.1719 2.05078 45.1719V47.1719ZM4.48496 46.7874C5.44985 46.5335 6.31803 46.1312 6.84795 45.4499L5.26924 44.222C5.14291 44.3844 4.79234 44.6384 3.97598 44.8532L4.48496 46.7874ZM6.84795 45.4499C7.9273 44.0621 9.07147 41.7427 10.2955 38.5883L8.43102 37.8648C7.21759 40.9917 6.15864 43.0785 5.26924 44.222L6.84795 45.4499ZM10.2952 38.5893L22.5295 7.15962L20.6658 6.43413L8.43139 37.8638L10.2952 38.5893ZM22.5261 7.16827C22.6424 6.87766 22.7718 6.45623 22.914 5.93499L20.9845 5.40876C20.8454 5.91877 20.7404 6.24734 20.6692 6.42548L22.5261 7.16827ZM22.889 6.01362C23.0761 5.49922 23.2121 5.1369 23.2996 4.91827L21.4426 4.17548C21.3426 4.4256 21.1974 4.81328 21.0094 5.33013L22.889 6.01362ZM23.3198 4.8631C23.3939 4.64088 23.5131 4.35822 23.6874 4.00971L21.8985 3.11529C21.6978 3.51678 21.5358 3.89037 21.4224 4.23065L23.3198 4.8631ZM23.7068 3.96864C23.8872 3.56281 24.0145 3.34264 24.0852 3.24844L22.4852 2.04844C22.2746 2.32923 22.0738 2.71844 21.8792 3.15636L23.7068 3.96864ZM24.0852 3.24844C24.2181 3.07119 24.3755 2.86869 24.5582 2.64032L22.9965 1.39093C22.8042 1.63131 22.6335 1.85068 22.4852 2.04844L24.0852 3.24844ZM24.4845 2.72273C24.6516 2.55558 24.7759 2.48228 24.8519 2.45191L24.1091 0.594961C23.7162 0.752095 23.3718 1.00692 23.0702 1.30852L24.4845 2.72273ZM24.7967 2.47212C24.9657 2.41578 25.1625 2.38281 25.3945 2.38281V0.382812C24.9703 0.382812 24.5577 0.443591 24.1642 0.574754L24.7967 2.47212ZM25.0783 2.3315L25.7111 2.54243L26.3436 0.645067L25.7108 0.434129L25.0783 2.3315ZM17.8327 27.9758C20.2683 28.0695 21.9507 28.1172 22.8633 28.1172V26.1172C21.9946 26.1172 20.3489 26.0711 17.9095 25.9773L17.8327 27.9758ZM22.8633 28.1172C24.9485 28.1172 27.1026 28.0461 29.3254 27.9042L29.198 25.9083C27.0146 26.0476 24.9031 26.1172 22.8633 26.1172V28.1172ZM30.1192 27.4207L30.3301 27.0692L28.6152 26.0402L28.4042 26.3918L30.1192 27.4207ZM30.4116 26.2106L24.7163 10.6715L22.8384 11.3598L28.5337 26.8988L30.4116 26.2106ZM22.8443 10.6558L16.7974 26.3355L18.6635 27.0551L24.7104 11.3754L22.8443 10.6558ZM16.7305 26.6953C16.7305 26.8401 16.7433 27.0976 16.8712 27.3535C16.9422 27.4955 17.0616 27.6622 17.2549 27.791C17.4544 27.9241 17.6727 27.9766 17.8711 27.9766V25.9766C18.0226 25.9766 18.1999 26.0173 18.3643 26.1269C18.5224 26.2324 18.6125 26.3638 18.6601 26.459C18.7411 26.6211 18.7305 26.738 18.7305 26.6953H16.7305ZM66.1055 1.45312L66.9999 1.00591L66.7078 0.421758L66.0555 0.454373L66.1055 1.45312ZM66.1758 2.64844L65.1787 2.57174L65.1758 2.61003V2.64844H66.1758ZM64.7695 3.63281L64.869 4.62785L64.9177 4.62298L64.9656 4.61339L64.7695 3.63281ZM63.2227 4.26562L63.7595 5.10929L63.7685 5.10358L63.7774 5.09768L63.2227 4.26562ZM64.0664 10.7344L64.9592 10.2836L64.9526 10.2711L64.0664 10.7344ZM78.6211 39.5625L77.7284 40.0132L77.7448 40.0457L77.7636 40.077L78.6211 39.5625ZM79.1836 39.7734L79.555 40.7019L79.6294 40.6722L79.6981 40.6309L79.1836 39.7734ZM79.6758 39.2109L78.7742 38.7784L78.7597 38.8085L78.7473 38.8395L79.6758 39.2109ZM85.5117 27.0469L86.4133 27.4794L86.6222 27.044L86.4111 26.6097L85.5117 27.0469ZM78.1289 11.8594L79.0283 11.4222L79.0264 11.4183L78.1289 11.8594ZM74.0508 5.10938L74.8379 4.49246L74.8317 4.48468L74.0508 5.10938ZM72.1523 3.98438L71.8066 4.92272L71.8287 4.93086L71.8512 4.93796L72.1523 3.98438ZM69.9727 1.45312L70.0161 0.454069L69.5766 0.434961L69.2655 0.746018L69.9727 1.45312ZM86.1445 1.45312L87.039 1.00591L86.7469 0.421758L86.0946 0.454373L86.1445 1.45312ZM86.2148 2.64844L85.2178 2.57174L85.2148 2.61003V2.64844H86.2148ZM84.8086 3.63281L84.919 4.6267L84.9622 4.6219L85.0047 4.61339L84.8086 3.63281ZM83.332 4.19531L82.8282 3.33153L82.8115 3.34127L82.7952 3.35165L83.332 4.19531ZM84.1758 10.7344L83.2739 11.1665L83.2774 11.1736L84.1758 10.7344ZM88.8164 20.2266L87.918 20.6658L88.8283 22.5276L89.7193 20.6565L88.8164 20.2266ZM93.7383 9.89062L94.6411 10.3206L94.6455 10.3114L94.6497 10.3022L93.7383 9.89062ZM93.1758 4.05469L92.8198 4.98918L92.8269 4.99188L92.834 4.99448L93.1758 4.05469ZM90.5742 1.45312L90.6366 0.455072L90.1862 0.426923L89.8671 0.746018L90.5742 1.45312ZM104.988 1.45312L105.883 1.00591L105.591 0.421758L104.938 0.454373L104.988 1.45312ZM105.059 2.64844L104.062 2.57174L104.059 2.61003V2.64844H105.059ZM102.387 4.05469L102.082 3.10219L102.07 3.106L102.387 4.05469ZM99.9961 5.46094L99.2278 4.82073L99.2221 4.8277L99.9961 5.46094ZM95.918 12.7031L95.0213 12.2603L95.019 12.265L95.918 12.7031ZM90.5039 23.8125L89.605 23.3744L89.3916 23.8122L89.6047 24.2501L90.5039 23.8125ZM98.168 39.5625L97.2688 40.0001L97.2789 40.021L97.2901 40.0414L98.168 39.5625ZM99.0117 39.2109L98.0949 38.8116L98.0845 38.8355L98.0754 38.8598L99.0117 39.2109ZM111.598 10.3125L112.514 10.7118L112.518 10.7037L112.521 10.6955L111.598 10.3125ZM111.316 4.125L110.906 5.03692L110.933 5.04901L110.96 5.05949L111.316 4.125ZM108.785 1.45312L108.848 0.455072L108.397 0.426923L108.078 0.746018L108.785 1.45312ZM122.918 1.45312L123.867 1.1369L123.621 0.400351L122.847 0.455666L122.918 1.45312ZM120.527 4.05469L120.831 5.00761L120.85 5.00144L120.869 4.99448L120.527 4.05469ZM118.207 5.46094L118.968 6.10989L118.97 6.10688L118.207 5.46094ZM114.129 12.5625L115.044 12.9665L115.047 12.9597L114.129 12.5625ZM99.2227 46.3125L100.128 46.7369L100.133 46.7268L100.137 46.7165L99.2227 46.3125ZM95.8477 48.2109L94.949 48.6495L94.9679 48.6884L94.9902 48.7254L95.8477 48.2109ZM87.2695 30.6328L88.1682 30.1942L87.2661 28.3456L86.3695 30.1969L87.2695 30.6328ZM79.6758 46.3125L78.7757 45.8766L78.7703 45.8881L79.6758 46.3125ZM76.3008 48.2109L75.4074 48.6602L75.4241 48.6935L75.4433 48.7254L76.3008 48.2109ZM58.0195 11.8594L57.122 12.3005L57.1261 12.3087L58.0195 11.8594ZM53.9414 5.10938L54.7285 4.49246L54.7223 4.48468L53.9414 5.10938ZM52.043 3.98438L51.6973 4.92272L51.7194 4.93086L51.7418 4.93796L52.043 3.98438ZM49.8633 1.45312L49.9067 0.454069L49.4672 0.434961L49.1562 0.746018L49.8633 1.45312ZM58.7227 2.80469C58.9902 2.80469 61.495 2.6849 66.1554 2.45188L66.0555 0.454373C63.712 0.571549 61.9258 0.659392 60.6966 0.717929C60.0818 0.747204 59.6073 0.7691 59.2725 0.783659C59.1049 0.790945 58.9737 0.796333 58.8779 0.79988C58.83 0.801656 58.7923 0.802918 58.7641 0.803722C58.7332 0.804606 58.722 0.804688 58.7227 0.804688V2.80469ZM65.211 1.90034C65.1818 1.84195 65.1781 1.80965 65.182 1.82942C65.1852 1.84518 65.1911 1.88356 65.1951 1.9513C65.2031 2.0884 65.2003 2.29114 65.1787 2.57174L67.1728 2.72513C67.1981 2.39636 67.207 2.0952 67.1916 1.83386C67.1779 1.59956 67.1401 1.28635 66.9999 1.00591L65.211 1.90034ZM65.1758 2.64844C65.1758 2.76973 65.1719 2.86394 65.1661 2.93453C65.1631 2.9694 65.16 2.9956 65.1572 3.01426C65.1543 3.0333 65.1524 3.04064 65.1529 3.03871C65.1532 3.03761 65.1578 3.01899 65.1703 2.98892C65.1823 2.9602 65.2082 2.90466 65.2571 2.83945C65.3068 2.77329 65.3902 2.6839 65.5181 2.61076C65.6526 2.53391 65.807 2.49219 65.9648 2.49219V4.49219C66.3929 4.49219 66.6943 4.25659 66.8571 4.03945C66.9989 3.85047 67.0616 3.65019 67.0932 3.52379C67.1589 3.26077 67.1758 2.95016 67.1758 2.64844H65.1758ZM65.9648 2.49219C65.5485 2.49219 65.0803 2.55085 64.5734 2.65223L64.9656 4.61339C65.3963 4.52727 65.7249 4.49219 65.9648 4.49219V2.49219ZM64.67 2.63778C63.9831 2.70647 63.3112 3.00475 62.668 3.43357L63.7774 5.09768C64.2591 4.7765 64.6184 4.65291 64.869 4.62785L64.67 2.63778ZM62.6858 3.42196C61.9439 3.89407 61.4492 4.606 61.4492 5.53125H63.4492C63.4492 5.42525 63.4702 5.29343 63.7595 5.10929L62.6858 3.42196ZM61.4492 5.53125C61.4492 7.17163 62.0705 9.0748 63.1802 11.1976L64.9526 10.2711C63.906 8.26895 63.4492 6.70337 63.4492 5.53125H61.4492ZM63.1737 11.1851L77.7284 40.0132L79.5138 39.1118L64.9591 10.2837L63.1737 11.1851ZM77.7636 40.077C77.9081 40.3178 78.1451 40.5882 78.5161 40.7273C78.8995 40.8711 79.269 40.8163 79.555 40.7019L78.8122 38.845C78.8638 38.8243 79.0224 38.7812 79.2183 38.8547C79.4018 38.9235 79.4747 39.0415 79.4786 39.048L77.7636 40.077ZM79.6981 40.6309C80.1034 40.3877 80.4225 40.0368 80.6043 39.5823L78.7473 38.8395C78.7416 38.8539 78.7325 38.8779 78.6691 38.9159L79.6981 40.6309ZM80.5774 39.6435L86.4133 27.4794L84.6101 26.6143L78.7742 38.7784L80.5774 39.6435ZM86.4111 26.6097L79.0283 11.4222L77.2295 12.2966L84.6124 27.4841L86.4111 26.6097ZM79.0264 11.4183C77.6475 8.61296 76.2531 6.29824 74.8378 4.49249L73.2637 5.72626C74.5672 7.38926 75.8916 9.57454 77.2315 12.3005L79.0264 11.4183ZM74.8317 4.48468C74.2817 3.7972 73.4359 3.34103 72.4535 3.03079L71.8512 4.93796C72.6501 5.19022 73.0699 5.48405 73.2699 5.73407L74.8317 4.48468ZM72.498 3.04603C71.562 2.70119 70.707 2.49219 69.9727 2.49219V4.49219C70.3634 4.49219 70.9614 4.61131 71.8066 4.92272L72.498 3.04603ZM69.9727 2.49219C70.1127 2.49219 70.2531 2.52681 70.379 2.59423C70.4998 2.65898 70.5809 2.73959 70.6305 2.80157C70.719 2.91221 70.7351 2.99761 70.728 2.97085C70.7156 2.92462 70.6914 2.76695 70.6914 2.4375H68.6914C68.6914 2.81117 68.7141 3.18085 68.7955 3.48618C68.8352 3.63521 68.9099 3.85244 69.0687 4.05096C69.2514 4.27926 69.5602 4.49219 69.9727 4.49219V2.49219ZM70.6914 2.4375C70.6914 2.26403 70.7094 2.163 70.7232 2.11456C70.7365 2.06817 70.7358 2.10415 70.6798 2.16023L69.2655 0.746018C68.7901 1.22144 68.6914 1.89105 68.6914 2.4375H70.6914ZM69.9292 2.45218C75.3006 2.68572 78.2879 2.80469 78.832 2.80469V0.804688C78.3449 0.804688 75.426 0.689283 70.0161 0.454069L69.9292 2.45218ZM78.832 2.80469C79.0527 2.80469 81.5352 2.68484 86.1945 2.45188L86.0946 0.454373C83.751 0.571552 81.9705 0.659404 80.7528 0.717951C80.1437 0.74723 79.6763 0.769138 79.3499 0.78371C79.1866 0.791003 79.0598 0.796401 78.9688 0.799956C78.8677 0.803904 78.8315 0.804688 78.832 0.804688V2.80469ZM85.2501 1.90034C85.2209 1.84195 85.2171 1.80965 85.2211 1.82942C85.2242 1.84518 85.2302 1.88356 85.2341 1.9513C85.2422 2.0884 85.2394 2.29114 85.2178 2.57174L87.2119 2.72513C87.2372 2.39636 87.2461 2.0952 87.2307 1.83386C87.2169 1.59956 87.1792 1.28635 87.039 1.00591L85.2501 1.90034ZM85.2148 2.64844C85.2148 2.76973 85.211 2.86394 85.2051 2.93453C85.2022 2.9694 85.199 2.9956 85.1962 3.01426C85.1934 3.0333 85.1915 3.04064 85.192 3.03871C85.1922 3.03761 85.1968 3.01899 85.2094 2.98892C85.2213 2.9602 85.2473 2.90466 85.2962 2.83945C85.3458 2.77329 85.4292 2.6839 85.5572 2.61076C85.6917 2.53391 85.846 2.49219 86.0039 2.49219V4.49219C86.4319 4.49219 86.7333 4.25659 86.8962 4.03945C87.0379 3.85047 87.1007 3.65019 87.1323 3.52379C87.198 3.26077 87.2148 2.95016 87.2148 2.64844H85.2148ZM86.0039 2.49219C85.5876 2.49219 85.1194 2.55085 84.6125 2.65223L85.0047 4.61339C85.4353 4.52727 85.764 4.49219 86.0039 4.49219V2.49219ZM84.6982 2.63893C84.0834 2.70723 83.4532 2.9669 82.8282 3.33153L83.8359 5.05909C84.3358 4.76748 84.69 4.65214 84.919 4.6267L84.6982 2.63893ZM82.7952 3.35165C82.0209 3.84436 81.5586 4.59295 81.5586 5.53125H83.5586C83.5586 5.34455 83.6119 5.20251 83.8689 5.03897L82.7952 3.35165ZM81.5586 5.53125C81.5586 6.98775 82.1851 8.89407 83.274 11.1665L85.0776 10.3023C84.0102 8.07468 83.5586 6.51225 83.5586 5.53125H81.5586ZM83.2774 11.1736L87.918 20.6658L89.7148 19.7874L85.0742 10.2952L83.2774 11.1736ZM89.7193 20.6565L94.6411 10.3206L92.8354 9.46069L87.9135 19.7966L89.7193 20.6565ZM94.6497 10.3022C95.3496 8.75227 95.7227 7.25187 95.7227 5.8125H93.7227C93.7227 6.90438 93.4394 8.12273 92.8269 9.47904L94.6497 10.3022ZM95.7227 5.8125C95.7227 5.17648 95.5088 4.59447 95.0867 4.11476C94.6822 3.65518 94.1303 3.33773 93.5175 3.11489L92.834 4.99448C93.2525 5.14665 93.474 5.30967 93.5852 5.43602C93.6787 5.54225 93.7227 5.65165 93.7227 5.8125H95.7227ZM93.5318 3.1202C92.4762 2.71808 91.4843 2.49219 90.5742 2.49219V4.49219C91.1641 4.49219 91.9066 4.6413 92.8198 4.98918L93.5318 3.1202ZM90.5742 2.49219C90.6792 2.49219 90.792 2.51263 90.9022 2.55986C91.0113 2.6066 91.0962 2.67022 91.1583 2.73235C91.2735 2.84754 91.3084 2.95438 91.312 2.96502C91.3181 2.98332 91.3114 2.9699 91.3044 2.90715C91.2978 2.84791 91.293 2.76323 91.293 2.64844H89.293C89.293 2.95887 89.3156 3.30052 89.4146 3.59748C89.505 3.86875 89.8162 4.49219 90.5742 4.49219V2.49219ZM91.293 2.64844C91.293 2.38728 91.3138 2.21892 91.3367 2.12162C91.3623 2.01278 91.3722 2.06935 91.2813 2.16023L89.8671 0.746018C89.5887 1.0244 89.458 1.37394 89.3899 1.66354C89.319 1.96467 89.293 2.30022 89.293 2.64844H91.293ZM90.5118 2.45118C94.2512 2.68489 96.6534 2.80469 97.6758 2.80469V0.804688C96.7294 0.804688 94.3972 0.690113 90.6366 0.455072L90.5118 2.45118ZM97.6758 2.80469C97.8965 2.80469 100.379 2.68484 105.038 2.45188L104.938 0.454373C102.595 0.571552 100.814 0.659404 99.5965 0.717951C98.9875 0.74723 98.5201 0.769138 98.1937 0.78371C98.0303 0.791003 97.9035 0.796401 97.8125 0.799956C97.7115 0.803904 97.6753 0.804688 97.6758 0.804688V2.80469ZM104.094 1.90034C104.065 1.84195 104.061 1.80965 104.065 1.82942C104.068 1.84518 104.074 1.88356 104.078 1.9513C104.086 2.0884 104.083 2.29114 104.062 2.57174L106.056 2.72513C106.081 2.39636 106.09 2.0952 106.074 1.83386C106.061 1.59956 106.023 1.28635 105.883 1.00591L104.094 1.90034ZM104.059 2.64844C104.059 2.76973 104.055 2.86394 104.049 2.93453C104.046 2.9694 104.043 2.9956 104.04 3.01426C104.037 3.0333 104.035 3.04064 104.036 3.03871C104.036 3.03761 104.041 3.01899 104.053 2.98892C104.065 2.9602 104.091 2.90466 104.14 2.83945C104.19 2.77329 104.273 2.6839 104.401 2.61076C104.535 2.53391 104.69 2.49219 104.848 2.49219V4.49219C105.276 4.49219 105.577 4.25659 105.74 4.03945C105.882 3.85047 105.944 3.65019 105.976 3.52379C106.042 3.26077 106.059 2.95016 106.059 2.64844H104.059ZM104.848 2.49219C104.202 2.49219 103.243 2.73087 102.082 3.10226L102.691 5.00711C103.875 4.6285 104.555 4.49219 104.848 4.49219V2.49219ZM102.07 3.106C100.868 3.50691 99.8682 4.05235 99.2279 4.82075L100.764 6.10112C101.061 5.74453 101.656 5.35247 102.703 5.00337L102.07 3.106ZM99.2221 4.8277C98.2931 5.96316 96.8854 8.48552 95.0213 12.2603L96.8146 13.1459C98.7005 9.32698 100.012 7.02122 100.77 6.09418L99.2221 4.8277ZM95.019 12.265L89.605 23.3744L91.4028 24.2506L96.8169 13.1412L95.019 12.265ZM89.6047 24.2501L97.2688 40.0001L99.0672 39.1249L91.4031 23.3749L89.6047 24.2501ZM97.2901 40.0414C97.3888 40.2223 97.5478 40.4673 97.8009 40.6466C98.1086 40.8645 98.5398 40.9655 98.9745 40.7844C99.3204 40.6403 99.528 40.3712 99.6397 40.199C99.7647 40.0064 99.8646 39.7846 99.948 39.5621L98.0754 38.8598C98.0182 39.0122 97.9775 39.0864 97.9618 39.1106C97.9329 39.1551 97.9999 39.0238 98.2052 38.9383C98.3246 38.8885 98.4718 38.8632 98.6287 38.8861C98.7796 38.9081 98.8903 38.9673 98.9569 39.0145C99.0694 39.0942 99.0878 39.1605 99.0459 39.0836L97.2901 40.0414ZM99.9285 39.6102L112.514 10.7118L110.681 9.9132L98.0949 38.8116L99.9285 39.6102ZM112.521 10.6955C113.328 8.75051 113.793 7.12123 113.793 5.88281H111.793C111.793 6.70689 111.461 8.03074 110.674 9.92948L112.521 10.6955ZM113.793 5.88281C113.793 5.25967 113.594 4.68358 113.19 4.20251C112.8 3.73921 112.267 3.41688 111.672 3.19051L110.96 5.05949C111.351 5.20812 111.555 5.36626 111.658 5.4889C111.746 5.59377 111.793 5.70908 111.793 5.88281H113.793ZM111.727 3.21308C110.705 2.75339 109.719 2.49219 108.785 2.49219V4.49219C109.352 4.49219 110.053 4.65286 110.906 5.03692L111.727 3.21308ZM108.785 2.49219C108.89 2.49219 109.003 2.51263 109.113 2.55986C109.222 2.6066 109.307 2.67022 109.369 2.73235C109.484 2.84754 109.519 2.95438 109.523 2.96502C109.529 2.98332 109.522 2.9699 109.515 2.90715C109.509 2.84791 109.504 2.76323 109.504 2.64844H107.504C107.504 2.95887 107.527 3.30052 107.626 3.59748C107.716 3.86875 108.027 4.49219 108.785 4.49219V2.49219ZM109.504 2.64844C109.504 2.38728 109.525 2.21892 109.548 2.12162C109.573 2.01278 109.583 2.06935 109.492 2.16023L108.078 0.746018C107.8 1.0244 107.669 1.37394 107.601 1.66354C107.53 1.96467 107.504 2.30022 107.504 2.64844H109.504ZM108.723 2.45118C112.463 2.68495 114.888 2.80469 115.957 2.80469V0.804688C114.964 0.804688 112.607 0.690049 108.848 0.455072L108.723 2.45118ZM115.957 2.80469C117.047 2.80469 117.962 2.78107 118.695 2.73216L118.562 0.73659C117.89 0.781435 117.023 0.804688 115.957 0.804688V2.80469ZM118.695 2.73216C119.397 2.68538 120.122 2.6386 120.871 2.5918L120.746 0.595697C119.995 0.642653 119.267 0.689617 118.562 0.73659L118.695 2.73216ZM120.871 2.5918C121.624 2.54477 122.33 2.4977 122.989 2.45058L122.847 0.455666C122.194 0.502303 121.494 0.548982 120.746 0.595697L120.871 2.5918ZM121.969 1.76935C122.018 1.91551 122.059 2.15183 122.059 2.50781H124.059C124.059 2.02005 124.005 1.55324 123.867 1.1369L121.969 1.76935ZM122.059 2.50781C122.059 2.64977 122.053 2.76039 122.046 2.84367C122.042 2.88482 122.037 2.91607 122.033 2.9387C122.029 2.96173 122.027 2.9717 122.027 2.97137C122.027 2.9709 122.028 2.96654 122.031 2.95895C122.034 2.95142 122.038 2.93936 122.046 2.92383C122.06 2.89469 122.089 2.84111 122.141 2.77987C122.195 2.71693 122.278 2.64136 122.396 2.58238C122.518 2.52163 122.649 2.49219 122.777 2.49219V4.49219C123.162 4.49219 123.467 4.30656 123.66 4.08146C123.827 3.88601 123.907 3.66975 123.95 3.52081C124.036 3.21924 124.059 2.85998 124.059 2.50781H122.059ZM122.777 2.49219C122.116 2.49219 121.219 2.73924 120.186 3.11489L120.869 4.99448C121.899 4.62014 122.502 4.49219 122.777 4.49219V2.49219ZM120.224 3.10176C119.075 3.46726 118.117 4.01954 117.444 4.815L118.97 6.10688C119.329 5.68359 119.917 5.29836 120.831 5.00761L120.224 3.10176ZM117.446 4.81199C115.995 6.51392 114.588 8.9834 113.211 12.1653L115.047 12.9597C116.388 9.86035 117.701 7.59545 118.968 6.10988L117.446 4.81199ZM113.214 12.1585L98.3079 45.9085L100.137 46.7165L115.044 12.9665L113.214 12.1585ZM98.3172 45.8881C97.6901 47.2258 97.0452 47.5625 96.4805 47.5625V49.5625C98.1658 49.5625 99.3489 48.3992 100.128 46.7369L98.3172 45.8881ZM96.4805 47.5625C96.4796 47.5625 96.4921 47.5624 96.5143 47.5677C96.5373 47.5732 96.5662 47.5833 96.597 47.6005C96.6643 47.6379 96.6974 47.6835 96.7051 47.6964L94.9902 48.7254C95.3178 49.2716 95.8604 49.5625 96.4805 49.5625V47.5625ZM96.7464 47.7724L88.1682 30.1942L86.3708 31.0714L94.949 48.6495L96.7464 47.7724ZM86.3695 30.1969L78.7758 45.8766L80.5758 46.7484L88.1695 31.0687L86.3695 30.1969ZM78.7703 45.8881C78.1433 47.2258 77.4983 47.5625 76.9336 47.5625V49.5625C78.6189 49.5625 79.802 48.3992 80.5812 46.7369L78.7703 45.8881ZM76.9336 47.5625C76.9327 47.5625 76.9452 47.5624 76.9675 47.5677C76.9904 47.5732 77.0193 47.5833 77.0501 47.6005C77.1175 47.6379 77.1505 47.6835 77.1583 47.6964L75.4433 48.7254C75.771 49.2716 76.3136 49.5625 76.9336 49.5625V47.5625ZM77.1942 47.7617L58.9129 11.4101L57.1261 12.3087L75.4074 48.6602L77.1942 47.7617ZM58.917 11.4183C57.5381 8.61296 56.1438 6.29824 54.7285 4.49249L53.1544 5.72626C54.4578 7.38926 55.7822 9.57454 57.1221 12.3005L58.917 11.4183ZM54.7223 4.48468C54.1723 3.7972 53.3265 3.34103 52.3441 3.03079L51.7418 4.93796C52.5407 5.19022 52.9605 5.48405 53.1605 5.73407L54.7223 4.48468ZM52.3887 3.04603C51.4527 2.70119 50.5976 2.49219 49.8633 2.49219V4.49219C50.254 4.49219 50.852 4.61131 51.6973 4.92272L52.3887 3.04603ZM49.8633 2.49219C49.9798 2.49219 50.1022 2.5169 50.2185 2.5709C50.3325 2.62384 50.4168 2.69374 50.475 2.75678C50.5315 2.81799 50.5644 2.87359 50.5817 2.90733C50.5992 2.94147 50.6066 2.96453 50.6081 2.96959C50.6103 2.97673 50.6021 2.95097 50.5944 2.876C50.5871 2.8045 50.582 2.70664 50.582 2.57812H48.582C48.582 2.90917 48.6046 3.25902 48.6966 3.55776C48.7691 3.7934 49.0588 4.49219 49.8633 4.49219V2.49219ZM50.582 2.57812C50.582 2.34514 50.6022 2.19873 50.6225 2.11754C50.6443 2.03028 50.6505 2.08011 50.5704 2.16023L49.1562 0.746018C48.8886 1.01364 48.7541 1.34472 48.6822 1.63246C48.6088 1.92627 48.582 2.24861 48.582 2.57812H50.582ZM49.8198 2.45218C55.1912 2.68572 58.1785 2.80469 58.7227 2.80469V0.804688C58.2356 0.804688 55.3166 0.689283 49.9067 0.454069L49.8198 2.45218ZM132.551 4.6875L133.19 5.45683L133.197 5.4504L132.551 4.6875ZM145.066 1.38281L144.91 2.37058L144.939 2.37502L144.967 2.37785L145.066 1.38281ZM147.316 1.73438L147.074 2.70452L147.083 2.70672L147.092 2.70877L147.316 1.73438ZM149.848 2.4375L149.556 3.39417L149.581 3.40152L149.605 3.40764L149.848 2.4375ZM152.801 3.14062L153.776 2.9198L153.636 2.30188L153.018 2.16444L152.801 3.14062ZM151.113 12.9844L150.12 13.0973L150.124 13.1392L150.133 13.1805L151.113 12.9844ZM148.09 7.00781L147.339 7.66884L147.348 7.67832L147.356 7.68758L148.09 7.00781ZM135.715 6.16406L134.947 5.52388L134.94 5.53156L134.934 5.53937L135.715 6.16406ZM134.52 13.9688L133.588 14.3312L133.591 14.3404L133.595 14.3495L134.52 13.9688ZM135.504 16.0078L134.64 16.5117L134.65 16.5284L134.66 16.5447L135.504 16.0078ZM137.262 17.8359L136.622 18.6042L136.632 18.6126L136.642 18.6208L137.262 17.8359ZM139.16 19.3125L138.56 20.1125L138.582 20.1292L138.605 20.1446L139.16 19.3125ZM141.551 20.8594L141.012 21.7016L141.019 21.7064L141.027 21.711L141.551 20.8594ZM143.871 22.2656L144.386 21.4081L144.376 21.4027L144.367 21.3974L143.871 22.2656ZM146.332 23.8125L145.797 24.6573L145.807 24.6638L145.818 24.67L146.332 23.8125ZM149.215 25.6406L148.627 26.4494L148.652 26.4676L148.678 26.4843L149.215 25.6406ZM151.605 27.5391L150.949 28.2937L150.967 28.3088L150.985 28.3231L151.605 27.5391ZM153.996 29.9297L153.164 30.4844L153.176 30.503L153.19 30.5211L153.996 29.9297ZM155.402 32.6016L154.471 32.966L154.481 32.9909L154.492 33.0154L155.402 32.6016ZM151.676 45.1172L152.311 45.8895L152.312 45.8884L151.676 45.1172ZM137.824 48.4219L137.971 47.4327L137.953 47.43L137.935 47.428L137.824 48.4219ZM134.66 48L134.443 48.9762L134.469 48.982L134.496 48.9864L134.66 48ZM131.426 47.2969L131.175 48.2649L131.195 48.2702L131.216 48.2747L131.426 47.2969ZM128.754 46.6641L127.774 46.8632L127.909 47.5268L128.575 47.6479L128.754 46.6641ZM129.879 35.6953L130.852 35.4655L130.802 35.2534L130.668 35.0814L129.879 35.6953ZM148.652 33.1641L147.774 33.6429L147.791 33.6725L147.809 33.7009L148.652 33.1641ZM147.035 31.5469L146.405 32.323L146.431 32.3443L146.458 32.3638L147.035 31.5469ZM140.637 27.6094L140.131 28.4721L140.141 28.4779L140.151 28.4835L140.637 27.6094ZM137.754 25.9219L137.217 26.7655L137.233 26.7759L137.25 26.7857L137.754 25.9219ZM135.082 24.2344L134.513 25.0566L134.531 25.069L134.549 25.0806L135.082 24.2344ZM132.41 22.0547L131.651 22.7055L131.663 22.7194L131.675 22.733L132.41 22.0547ZM130.441 19.7344L129.661 20.3591L129.668 20.3689L129.676 20.3785L130.441 19.7344ZM128.824 16.7812L127.859 17.0444L127.865 17.0645L127.871 17.0845L128.824 16.7812ZM129.402 13.5469C129.402 10.2335 130.654 7.5628 133.19 5.45679L131.912 3.91821C128.916 6.40595 127.402 9.64151 127.402 13.5469H129.402ZM133.197 5.4504C135.781 3.26116 138.762 2.17188 142.184 2.17188V0.171875C138.293 0.171875 134.852 1.42634 131.904 3.9246L133.197 5.4504ZM142.184 2.17188C143.17 2.17188 144.078 2.23916 144.91 2.37058L145.222 0.39505C144.273 0.245219 143.26 0.171875 142.184 0.171875V2.17188ZM144.967 2.37785C145.882 2.46936 146.578 2.58059 147.074 2.70452L147.559 0.764232C146.93 0.606906 146.126 0.483768 145.166 0.387775L144.967 2.37785ZM147.092 2.70877C147.668 2.84172 148.486 3.06835 149.556 3.39417L150.139 1.48083C149.053 1.1504 148.184 0.90828 147.541 0.759984L147.092 2.70877ZM149.605 3.40764C150.736 3.69035 151.729 3.92689 152.584 4.11681L153.018 2.16444C152.185 1.97936 151.209 1.74715 150.09 1.46736L149.605 3.40764ZM151.825 3.36145C152.364 5.7417 152.645 9.00925 152.645 13.1953H154.645C154.645 8.94388 154.362 5.5083 153.776 2.9198L151.825 3.36145ZM152.645 13.1953C152.645 13.1585 152.651 13.0781 152.698 12.9807C152.746 12.8783 152.82 12.7982 152.895 12.7452C152.965 12.6967 153.017 12.6841 153.022 12.6829C153.027 12.6818 153.003 12.6875 152.941 12.6875V14.6875C153.262 14.6875 153.68 14.637 154.042 14.3837C154.469 14.0849 154.645 13.6303 154.645 13.1953H152.645ZM152.941 12.6875C152.426 12.6875 152.136 12.6307 152 12.5784C151.939 12.555 151.951 12.548 151.987 12.5849C152.033 12.6307 152.077 12.7038 152.094 12.7883L150.133 13.1805C150.27 13.8676 150.787 14.2548 151.282 14.4451C151.755 14.6271 152.332 14.6875 152.941 14.6875V12.6875ZM152.107 12.8715C151.843 10.5471 150.711 8.36489 148.823 6.32805L147.356 7.68758C149.031 9.49449 149.915 11.2966 150.12 13.0973L152.107 12.8715ZM148.84 6.34678C146.924 4.17151 144.522 3.05469 141.691 3.05469V5.05469C143.924 5.05469 145.787 5.90661 147.339 7.66884L148.84 6.34678ZM141.691 3.05469C138.743 3.05469 136.392 3.7899 134.947 5.52388L136.483 6.80425C137.382 5.72573 139.015 5.05469 141.691 5.05469V3.05469ZM134.934 5.53937C133.647 7.14825 133.027 9.11231 133.027 11.3672H135.027C135.027 9.49707 135.533 7.99238 136.496 6.78876L134.934 5.53937ZM133.027 11.3672C133.027 12.3839 133.215 13.3738 133.588 14.3312L135.452 13.6063C135.168 12.8762 135.027 12.1318 135.027 11.3672H133.027ZM133.595 14.3495C133.935 15.1761 134.283 15.8993 134.64 16.5117L136.368 15.5039C136.069 14.9913 135.76 14.3552 135.444 13.588L133.595 14.3495ZM134.66 16.5447C135.071 17.1908 135.751 17.8787 136.622 18.6042L137.902 17.0677C137.085 16.3869 136.593 15.8561 136.348 15.4709L134.66 16.5447ZM136.642 18.6208C137.533 19.3239 138.174 19.823 138.56 20.1125L139.76 18.5125C139.396 18.2395 138.772 17.7542 137.881 17.0511L136.642 18.6208ZM138.605 20.1446C139.036 20.4317 139.841 20.9521 141.012 21.7016L142.09 20.0171C140.917 19.2666 140.128 18.7558 139.715 18.4804L138.605 20.1446ZM141.027 21.711C142.241 22.4582 143.03 22.9366 143.375 23.1339L144.367 21.3974C144.056 21.2197 143.298 20.7606 142.075 20.0077L141.027 21.711ZM143.357 23.1231C143.578 23.2558 144.384 23.7626 145.797 24.6573L146.867 22.9677C145.467 22.0812 144.633 21.5567 144.386 21.4081L143.357 23.1231ZM145.818 24.67C147.226 25.5149 148.151 26.1036 148.627 26.4494L149.803 24.8319C149.247 24.4276 148.251 23.7976 146.847 22.955L145.818 24.67ZM148.678 26.4843C149.125 26.7686 149.872 27.3573 150.949 28.2937L152.262 26.7845C151.182 25.8458 150.336 25.1689 149.752 24.797L148.678 26.4843ZM150.985 28.3231C152.077 29.1874 152.78 29.9082 153.164 30.4844L154.828 29.375C154.275 28.5449 153.384 27.672 152.226 26.755L150.985 28.3231ZM153.19 30.5211C153.64 31.1357 154.071 31.9439 154.471 32.966L156.334 32.2372C155.89 31.1029 155.383 30.1299 154.802 29.3383L153.19 30.5211ZM154.492 33.0154C154.902 33.9176 155.105 34.8547 155.105 35.8359H157.105C157.105 34.5672 156.84 33.348 156.313 32.1878L154.492 33.0154ZM155.105 35.8359C155.105 39.2803 153.768 42.0938 151.039 44.346L152.312 45.8884C155.49 43.2656 157.105 39.8916 157.105 35.8359H155.105ZM151.041 44.3449C148.322 46.5811 145.128 47.7031 141.41 47.7031V49.7031C145.568 49.7031 149.217 48.4345 152.311 45.8895L151.041 44.3449ZM141.41 47.7031C140.34 47.7031 139.194 47.6139 137.971 47.4327L137.678 49.4111C138.985 49.6048 140.23 49.7031 141.41 49.7031V47.7031ZM137.935 47.428C136.679 47.2885 135.644 47.1502 134.825 47.0136L134.496 48.9864C135.364 49.1311 136.438 49.274 137.714 49.4158L137.935 47.428ZM134.877 47.0238C134.03 46.8356 132.949 46.6006 131.635 46.3191L131.216 48.2747C132.527 48.5557 133.603 48.7894 134.443 48.9762L134.877 47.0238ZM131.677 46.3289C130.412 46.001 129.489 45.7813 128.933 45.6802L128.575 47.6479C129.05 47.7343 129.908 47.9365 131.175 48.2649L131.677 46.3289ZM129.734 46.4649C128.556 40.6715 127.996 37.051 127.996 35.4844H125.996C125.996 37.2927 126.608 41.1254 127.774 46.8632L129.734 46.4649ZM127.996 35.4844C127.996 35.5625 127.983 35.651 127.948 35.7415C127.914 35.8319 127.865 35.9065 127.814 35.9642C127.764 36.0203 127.716 36.0553 127.684 36.0753C127.653 36.095 127.632 36.1031 127.628 36.1043C127.626 36.1053 127.661 36.0927 127.753 36.0811C127.842 36.07 127.963 36.0625 128.121 36.0625V34.0625C127.712 34.0625 127.285 34.097 126.926 34.2316C126.74 34.3014 126.51 34.421 126.319 34.6354C126.11 34.8705 125.996 35.1682 125.996 35.4844H127.996ZM128.121 36.0625C128.836 36.0625 129.039 36.2445 129.09 36.3093L130.668 35.0814C130.062 34.3024 129.093 34.0625 128.121 34.0625V36.0625ZM128.906 35.9251C129.734 39.4346 131.186 42.179 133.337 44.0445C135.499 45.9201 138.267 46.8203 141.551 46.8203V44.8203C138.647 44.8203 136.376 44.033 134.647 42.5337C132.907 41.0242 131.617 38.706 130.852 35.4655L128.906 35.9251ZM141.551 46.8203C144.111 46.8203 146.34 46.0454 148.178 44.4702L146.877 42.9517C145.433 44.189 143.678 44.8203 141.551 44.8203V46.8203ZM148.178 44.4702C150.084 42.837 150.988 40.5424 150.988 37.7344H148.988C148.988 40.0826 148.252 41.7724 146.877 42.9517L148.178 44.4702ZM150.988 37.7344C150.988 36.6958 150.832 35.7148 150.509 34.8L148.623 35.4656C148.863 36.1446 148.988 36.8979 148.988 37.7344H150.988ZM150.509 34.8C150.212 33.9566 149.877 33.2259 149.496 32.6272L147.809 33.7009C148.084 34.1334 148.359 34.7153 148.623 35.4656L150.509 34.8ZM149.53 32.6852C149.143 31.9747 148.461 31.3295 147.612 30.7299L146.458 32.3638C147.203 32.8893 147.6 33.3222 147.774 33.6429L149.53 32.6852ZM147.666 30.7708C146.909 30.1559 146.294 29.6868 145.832 29.3789L144.723 31.043C145.105 31.2976 145.661 31.7191 146.405 32.323L147.666 30.7708ZM145.832 29.3789C145.368 29.0692 144.557 28.6043 143.433 27.9957L142.481 29.7543C143.607 30.3644 144.343 30.7902 144.723 31.043L145.832 29.3789ZM143.433 27.9957C142.308 27.3861 141.539 26.9667 141.122 26.7352L140.151 28.4835C140.578 28.7208 141.356 29.1451 142.481 29.7543L143.433 27.9957ZM141.142 26.7467C139.783 25.9498 138.821 25.3868 138.258 25.0581L137.25 26.7857C137.812 27.1132 138.772 27.6752 140.131 28.4721L141.142 26.7467ZM138.291 25.0782C137.773 24.7487 136.88 24.185 135.615 23.3881L134.549 25.0806C135.815 25.8775 136.704 26.4388 137.217 26.7655L138.291 25.0782ZM135.651 23.4122C134.454 22.583 133.633 21.9055 133.145 21.3764L131.675 22.733C132.312 23.4226 133.273 24.1982 134.513 25.0566L135.651 23.4122ZM133.169 21.4039C132.609 20.7505 131.955 19.9793 131.206 19.0902L129.676 20.3785C130.428 21.2707 131.086 22.0464 131.651 22.7055L133.169 21.4039ZM131.222 19.1097C130.54 18.2574 130.064 17.3804 129.777 16.478L127.871 17.0845C128.24 18.2446 128.842 19.3363 129.661 20.3591L131.222 19.1097ZM129.789 16.5181C129.532 15.577 129.402 14.5877 129.402 13.5469H127.402C127.402 14.7561 127.554 15.923 127.859 17.0444L129.789 16.5181Z" fill="#F2C94C"/>
</svg>
